<?xml version="1.0" standalone="no"?>
<!DOCTYPE svg PUBLIC "-//W3C//DTD SVG 20010904//EN"
 "http://www.w3.org/TR/2001/REC-SVG-20010904/DTD/svg10.dtd">
<svg version="1.0" xmlns="http://www.w3.org/2000/svg"
 width="980.000000pt" height="114.000000pt" viewBox="0 0 980.000000 114.000000"
 preserveAspectRatio="xMidYMid meet">
<metadata>
Created by potrace 1.15, written by Peter Selinger 2001-2017
</metadata>
<g transform="translate(0.000000,114.000000) scale(0.100000,-0.100000)"
fill="#000000" stroke="none">
<path d="M201 1029 c-37 -37 -71 -112 -71 -156 0 -8 -12 -13 -32 -13 -30 0
-31 -1 -13 -20 9 -10 32 -70 50 -131 27 -97 35 -113 53 -114 16 -1 24 7 33 32
8 26 15 33 28 28 9 -4 23 -9 33 -12 9 -3 19 -15 22 -27 6 -24 46 -30 54 -8 5
15 83 16 80 1 -2 -6 18 -11 50 -12 49 -2 68 6 40 16 -19 6 -3 18 34 26 28 6
35 4 49 -18 15 -25 20 -26 95 -24 96 2 94 2 67 13 -17 7 -23 18 -23 40 0 30 1
30 54 30 73 0 87 -6 80 -36 l-6 -23 66 28 c36 15 68 30 71 33 3 3 -14 18 -37
33 -24 15 -54 37 -67 49 l-24 21 7 -27 c6 -25 4 -28 -19 -28 -18 0 -25 5 -25
20 0 21 -15 27 -25 10 -3 -5 -22 -10 -41 -10 -33 0 -34 1 -34 40 0 40 0 40 39
40 22 0 46 -7 55 -15 22 -22 28 -18 24 18 -2 17 -6 31 -10 30 -5 -2 -49 -3
-98 -3 l-90 0 15 -24 c11 -16 15 -41 13 -72 -3 -43 -6 -48 -33 -56 -21 -5 -34
-3 -47 9 -18 16 -18 17 2 38 25 27 26 59 0 85 -18 18 -33 20 -137 20 -105 -1
-116 -2 -99 -15 19 -14 18 -16 -6 -87 -13 -40 -28 -73 -33 -73 -5 0 -18 38
-30 85 l-21 85 -39 3 c-36 2 -38 1 -22 -11 20 -17 21 -31 3 -72 l-12 -30 -28
41 c-16 24 -24 48 -20 57 4 10 1 17 -6 17 -9 0 -11 16 -8 56 4 52 9 60 51 101
26 25 47 47 47 49 0 13 -23 -1 -59 -37z"/>
<path d="M9235 920 c-3 -5 0 -10 7 -10 15 0 42 -55 34 -69 -8 -12 63 -53 80
-47 8 3 29 -4 47 -14 41 -24 93 -18 100 11 3 10 12 19 21 19 9 0 16 5 16 10 0
6 5 10 10 10 6 0 10 -11 10 -24 0 -24 23 -56 40 -56 5 0 7 -6 4 -14 -3 -7 2
-16 10 -19 19 -7 21 -43 4 -53 -6 -4 -17 1 -25 11 -12 18 -13 18 -13 -3 0 -27
-8 -28 -26 -4 -13 16 -15 16 -27 0 -8 -10 -16 -15 -19 -12 -3 2 -8 -4 -11 -16
-5 -18 7 -26 36 -21 4 0 7 -3 7 -9 0 -8 -63 -16 -92 -11 -5 0 -8 -3 -8 -9 0
-5 -7 -7 -15 -3 -11 4 -19 -4 -28 -26 -6 -17 -18 -31 -27 -31 -8 -1 -37 -16
-65 -35 -35 -24 -53 -31 -62 -24 -8 7 -18 7 -32 -1 -12 -6 -21 -8 -21 -4 0 4
-11 -3 -25 -16 -14 -13 -25 -19 -25 -14 0 5 -5 1 -11 -9 -11 -19 -3 -41 12
-32 5 4 9 1 9 -4 0 -6 -4 -11 -10 -11 -16 0 -11 -26 11 -54 l20 -26 228 0
c215 0 227 1 241 20 8 11 20 20 26 20 7 0 14 7 18 15 7 20 26 19 42 -3 12 -16
15 -15 41 10 26 26 26 28 9 41 -22 16 -17 53 7 51 19 -2 23 11 7 21 -14 9 -13
42 2 47 7 3 8 9 3 19 -5 8 -8 24 -7 36 2 12 -2 32 -9 44 -9 18 -9 25 5 34 25
19 22 119 -4 147 -25 28 -25 39 1 45 16 5 19 11 14 31 -13 52 -14 52 -294 52
-162 0 -262 -4 -266 -10z"/>
<path d="M8213 625 c-21 -9 -33 -21 -33 -33 0 -11 -11 -27 -24 -36 -28 -18
-45 -74 -26 -86 17 -11 -49 -41 -92 -42 -36 -1 -69 10 -79 25 -12 17 -41 -1
-34 -22 5 -16 0 -18 -41 -16 -26 1 -49 8 -54 15 -5 8 -21 15 -35 17 -31 4 -59
28 -51 42 3 5 -2 12 -12 16 -21 8 -28 4 -24 -13 2 -10 -4 -9 -22 3 -28 19 -25
21 -41 -30 -2 -8 -14 -15 -25 -15 -11 0 -20 -7 -20 -15 0 -19 -24 -19 -43 -1
-34 35 -82 -16 -71 -74 4 -19 2 -30 -5 -30 -6 0 -11 5 -11 10 0 14 -27 13 -36
-1 -3 -6 -1 -15 6 -19 10 -6 9 -9 -1 -13 -8 -3 214 -6 492 -6 l507 -1 -7 33
c-8 41 -3 97 9 97 6 0 16 -16 24 -35 18 -41 46 -47 46 -10 0 14 5 25 11 25 6
0 8 -8 4 -19 -8 -28 20 -52 53 -45 53 11 53 11 34 44 -11 19 -25 30 -39 30
-20 0 -22 4 -16 33 l6 32 -28 -27 c-41 -41 -65 -33 -65 23 0 11 -7 19 -17 20
-74 4 -68 -2 -88 92 -5 22 -10 27 -23 22 -43 -19 -65 -18 -81 3 -15 19 -19 20
-48 7z"/>
</g>
</svg>
